# xmcd
#
# Track frame offsets:
# 150
# 14190
# 21877
# 32336
# 38811
# 47633
# 56009
# 64204
# 72114
# 81096
#
# Disc length: 1257 seconds
#
#
# Revision: 0
# Processed by: cddbd v1.5.2PL0 Copyright (c) Steve Scherf et al.
# Submitted via: FreeRIP 2.945 
#
DISCID=8104e70a
DTITLE=Jackson - Jackson
DYEAR=2006
DGENRE=Popular
TTITLE0=Barquinho
TTITLE1=Pegando o ônibus
TTITLE2=Que pescar que nada
TTITLE3=Peão de vitrine
TTITLE4=Homem é tudo igual
TTITLE5=Garota Nacional
TTITLE6=Rock das aranhas
TTITLE7=Paulinha
TTITLE8=Foto 3 x 4
TTITLE9=Sina da vida
EXTD=
EXTT0=
EXTT1=
EXTT2=
EXTT3=
EXTT4=
EXTT5=
EXTT6=
EXTT7=
EXTT8=
EXTT9=
PLAYORDER=
